G04 DipTrace Beta 2.3.5.2*
%INOpenSky_NoLDO.GBL*%
%MOIN*%
%ADD13C,0.008*%
%ADD14C,0.006*%
%ADD15C,0.01*%
%ADD16C,0.012*%
%ADD26C,0.027*%
%FSLAX44Y44*%
G04*
G70*
G90*
G75*
G01*
%LNBottom*%
%LPD*%
X2510Y2820D2*
D14*
Y2280D1*
X2920Y1870D1*
Y1480D1*
X2620Y1180D1*
X2550D1*
X2220Y850D1*
X4630Y4680D2*
Y4660D1*
X4400Y4430D1*
Y4120D1*
X4510Y4010D1*
Y3170D1*
X1380Y4527D2*
D16*
X3623D1*
X4250Y3900D1*
Y2850D1*
X3640Y2240D1*
Y2060D1*
X3810Y1890D1*
Y410D1*
X3830Y390D1*
X1380Y4527D2*
X977D1*
X730Y4280D1*
Y3200D1*
X630Y3100D1*
Y2260D1*
X3330Y390D2*
D13*
Y680D1*
X3610Y960D1*
Y1777D1*
X3350Y2037D1*
Y2970D1*
X3970Y3590D1*
X2830Y390D2*
Y680D1*
X3350Y1200D1*
Y1640D1*
X2330Y390D2*
Y590D1*
X3110Y1370D1*
Y3190D1*
X3830Y3910D1*
X1330Y390D2*
X1290Y430D1*
Y530D1*
X1960Y1200D1*
X2240D1*
X2690Y1650D1*
X830Y390D2*
Y670D1*
X1600Y1440D1*
X2140D1*
X2300Y1600D1*
X4750Y4270D2*
Y840D1*
D26*
X1380Y4527D3*
X3640Y2240D3*
D3*
X630Y2260D3*
X1380Y4527D3*
X3640Y2240D3*
X3970Y3590D3*
X3350Y1640D3*
X3830Y3910D3*
X2300Y1600D3*
X4750Y4270D3*
Y840D3*
X2500Y3562D3*
X2220Y850D3*
X4380Y1880D3*
X400Y3850D3*
X4630Y4680D3*
X4510Y3170D3*
X1130Y4220D3*
X2510Y2820D3*
X2690Y1650D3*
X196Y4751D2*
D14*
X1335D1*
X1426D2*
X4854D1*
X196Y4693D2*
X1218D1*
X1542D2*
X4854D1*
X196Y4634D2*
X862D1*
X3737D2*
X4854D1*
X196Y4575D2*
X804D1*
X3796D2*
X4854D1*
X196Y4517D2*
X745D1*
X3855D2*
X4854D1*
X196Y4458D2*
X687D1*
X3914D2*
X4616D1*
X196Y4399D2*
X628D1*
X3972D2*
X4557D1*
X196Y4340D2*
X584D1*
X1012D2*
X1245D1*
X1516D2*
X3589D1*
X4031D2*
X4528D1*
X196Y4282D2*
X572D1*
X953D2*
X3647D1*
X4090D2*
X4517D1*
X196Y4223D2*
X572D1*
X895D2*
X3706D1*
X4148D2*
X4521D1*
X196Y4164D2*
X572D1*
X888D2*
X3764D1*
X4207D2*
X4543D1*
X196Y4106D2*
X572D1*
X888D2*
X3709D1*
X4265D2*
X4587D1*
X196Y4047D2*
X572D1*
X888D2*
X3643D1*
X4324D2*
X4611D1*
X196Y3988D2*
X572D1*
X888D2*
X3611D1*
X4380D2*
X4611D1*
X196Y3930D2*
X572D1*
X888D2*
X3598D1*
X4405D2*
X4611D1*
X196Y3871D2*
X572D1*
X888D2*
X3598D1*
X4409D2*
X4611D1*
X196Y3812D2*
X572D1*
X888D2*
X3539D1*
X4041D2*
X4092D1*
X4409D2*
X4611D1*
X196Y3754D2*
X572D1*
X888D2*
X3481D1*
X4409D2*
X4611D1*
X196Y3695D2*
X572D1*
X888D2*
X3422D1*
X4409D2*
X4611D1*
X196Y3636D2*
X572D1*
X888D2*
X3364D1*
X4409D2*
X4611D1*
X196Y3578D2*
X572D1*
X888D2*
X3304D1*
X3691D2*
X3737D1*
X4409D2*
X4611D1*
X196Y3519D2*
X572D1*
X888D2*
X3245D1*
X3631D2*
X3706D1*
X4409D2*
X4611D1*
X196Y3460D2*
X572D1*
X888D2*
X3187D1*
X3573D2*
X3648D1*
X4409D2*
X4611D1*
X196Y3401D2*
X572D1*
X888D2*
X3128D1*
X3514D2*
X3589D1*
X4409D2*
X4611D1*
X196Y3343D2*
X572D1*
X888D2*
X3070D1*
X3456D2*
X3529D1*
X3916D2*
X4092D1*
X4409D2*
X4611D1*
X196Y3284D2*
X572D1*
X888D2*
X3011D1*
X3397D2*
X3471D1*
X3857D2*
X4092D1*
X4409D2*
X4611D1*
X196Y3225D2*
X534D1*
X888D2*
X2976D1*
X3338D2*
X3412D1*
X3798D2*
X4092D1*
X4409D2*
X4611D1*
X196Y3167D2*
X487D1*
X885D2*
X2972D1*
X3280D2*
X3354D1*
X3740D2*
X4092D1*
X4409D2*
X4611D1*
X196Y3108D2*
X472D1*
X857D2*
X2972D1*
X3248D2*
X3295D1*
X3681D2*
X4092D1*
X4409D2*
X4611D1*
X196Y3049D2*
X471D1*
X801D2*
X2972D1*
X3622D2*
X4092D1*
X4409D2*
X4611D1*
X196Y2991D2*
X471D1*
X788D2*
X2972D1*
X3564D2*
X4092D1*
X4409D2*
X4611D1*
X196Y2932D2*
X471D1*
X788D2*
X2972D1*
X3505D2*
X4092D1*
X4409D2*
X4611D1*
X196Y2873D2*
X471D1*
X788D2*
X2972D1*
X3488D2*
X4052D1*
X4409D2*
X4611D1*
X196Y2815D2*
X471D1*
X788D2*
X2972D1*
X3488D2*
X3994D1*
X4404D2*
X4611D1*
X196Y2756D2*
X471D1*
X788D2*
X2972D1*
X3488D2*
X3934D1*
X4376D2*
X4611D1*
X196Y2697D2*
X471D1*
X788D2*
X2972D1*
X3488D2*
X3876D1*
X4319D2*
X4611D1*
X196Y2639D2*
X471D1*
X788D2*
X2972D1*
X3488D2*
X3817D1*
X4260D2*
X4611D1*
X196Y2580D2*
X471D1*
X788D2*
X2972D1*
X3488D2*
X3758D1*
X4201D2*
X4611D1*
X196Y2521D2*
X471D1*
X788D2*
X2972D1*
X3488D2*
X3700D1*
X4142D2*
X4611D1*
X196Y2462D2*
X471D1*
X788D2*
X2972D1*
X3488D2*
X3588D1*
X4084D2*
X4611D1*
X196Y2404D2*
X448D1*
X812D2*
X2972D1*
X4025D2*
X4611D1*
X196Y2345D2*
X413D1*
X847D2*
X2972D1*
X3966D2*
X4611D1*
X196Y2286D2*
X398D1*
X862D2*
X2972D1*
X3908D2*
X4611D1*
X196Y2228D2*
X399D1*
X861D2*
X2972D1*
X3873D2*
X4611D1*
X196Y2169D2*
X416D1*
X844D2*
X2972D1*
X3862D2*
X4611D1*
X196Y2110D2*
X453D1*
X807D2*
X2972D1*
X3833D2*
X4611D1*
X196Y2052D2*
X533D1*
X727D2*
X2972D1*
X3870D2*
X4611D1*
X196Y1993D2*
X2972D1*
X3928D2*
X4611D1*
X196Y1934D2*
X2972D1*
X3961D2*
X4611D1*
X196Y1876D2*
X2657D1*
X2723D2*
X2972D1*
X3248D2*
X3319D1*
X3968D2*
X4611D1*
X196Y1817D2*
X2226D1*
X2373D2*
X2530D1*
X2851D2*
X2972D1*
X3968D2*
X4611D1*
X196Y1758D2*
X2131D1*
X2896D2*
X2972D1*
X3968D2*
X4611D1*
X196Y1700D2*
X2089D1*
X2918D2*
X2972D1*
X3968D2*
X4611D1*
X196Y1641D2*
X2071D1*
X2923D2*
X2972D1*
X3968D2*
X4611D1*
X196Y1582D2*
X2067D1*
X2913D2*
X2972D1*
X3968D2*
X4611D1*
X196Y1523D2*
X1490D1*
X2885D2*
X2972D1*
X3968D2*
X4611D1*
X196Y1465D2*
X1431D1*
X2828D2*
X2972D1*
X3968D2*
X4611D1*
X196Y1406D2*
X1373D1*
X2640D2*
X2953D1*
X3968D2*
X4611D1*
X196Y1347D2*
X1314D1*
X2581D2*
X2895D1*
X3968D2*
X4611D1*
X196Y1289D2*
X1256D1*
X1642D2*
X1856D1*
X2521D2*
X2836D1*
X3968D2*
X4611D1*
X196Y1230D2*
X1197D1*
X1583D2*
X1797D1*
X2463D2*
X2777D1*
X3163D2*
X3187D1*
X3968D2*
X4611D1*
X196Y1171D2*
X1138D1*
X1524D2*
X1738D1*
X2404D2*
X2719D1*
X3105D2*
X3128D1*
X3968D2*
X4611D1*
X196Y1113D2*
X1080D1*
X1466D2*
X1680D1*
X2346D2*
X2659D1*
X3046D2*
X3069D1*
X3968D2*
X4611D1*
X196Y1054D2*
X1021D1*
X1407D2*
X1621D1*
X2007D2*
X2601D1*
X2987D2*
X3011D1*
X3397D2*
X3471D1*
X3968D2*
X4611D1*
X196Y995D2*
X963D1*
X1349D2*
X1563D1*
X1949D2*
X2542D1*
X2928D2*
X2951D1*
X3338D2*
X3453D1*
X3968D2*
X4579D1*
X196Y937D2*
X904D1*
X1290D2*
X1504D1*
X1890D2*
X2483D1*
X2869D2*
X2894D1*
X3280D2*
X3394D1*
X3968D2*
X4538D1*
X196Y878D2*
X844D1*
X1231D2*
X1444D1*
X1831D2*
X2425D1*
X2811D2*
X2834D1*
X3221D2*
X3334D1*
X3968D2*
X4519D1*
X196Y819D2*
X786D1*
X1172D2*
X1386D1*
X1772D2*
X2366D1*
X2752D2*
X2776D1*
X3163D2*
X3276D1*
X3968D2*
X4518D1*
X196Y761D2*
X727D1*
X1113D2*
X1327D1*
X1713D2*
X2308D1*
X2694D2*
X2719D1*
X3104D2*
X3219D1*
X3603D2*
X3651D1*
X3968D2*
X4531D1*
X196Y702D2*
X631D1*
X1055D2*
X1130D1*
X2029D2*
X2131D1*
X3045D2*
X3130D1*
X3545D2*
X3631D1*
X4030D2*
X4130D1*
X4530D2*
X4563D1*
X196Y643D2*
X606D1*
X1053D2*
X1107D1*
X2054D2*
X2106D1*
X2576D2*
X2607D1*
X3053D2*
X3107D1*
X3554D2*
X3606D1*
X4053D2*
X4107D1*
X4553D2*
X4630D1*
X196Y584D2*
X606D1*
X1053D2*
X1107D1*
X1553D2*
X1607D1*
X2054D2*
X2106D1*
X2553D2*
X2607D1*
X3053D2*
X3107D1*
X3554D2*
X3606D1*
X4053D2*
X4107D1*
X4553D2*
X4854D1*
X196Y526D2*
X606D1*
X1053D2*
X1107D1*
X1553D2*
X1607D1*
X2054D2*
X2106D1*
X2553D2*
X2607D1*
X3053D2*
X3107D1*
X3554D2*
X3606D1*
X4053D2*
X4107D1*
X4553D2*
X4854D1*
X196Y467D2*
X606D1*
X1053D2*
X1107D1*
X1553D2*
X1607D1*
X2054D2*
X2106D1*
X2553D2*
X2607D1*
X3053D2*
X3107D1*
X3554D2*
X3606D1*
X4053D2*
X4107D1*
X4553D2*
X4854D1*
X196Y408D2*
X606D1*
X1053D2*
X1107D1*
X1553D2*
X1607D1*
X2054D2*
X2106D1*
X2553D2*
X2607D1*
X3053D2*
X3107D1*
X3554D2*
X3606D1*
X4053D2*
X4107D1*
X4553D2*
X4854D1*
X196Y350D2*
X606D1*
X1053D2*
X1107D1*
X1553D2*
X1607D1*
X2054D2*
X2106D1*
X2553D2*
X2607D1*
X3053D2*
X3107D1*
X3554D2*
X3606D1*
X4053D2*
X4107D1*
X4553D2*
X4854D1*
X196Y291D2*
X606D1*
X1053D2*
X1107D1*
X1553D2*
X1607D1*
X2054D2*
X2106D1*
X2553D2*
X2607D1*
X3053D2*
X3107D1*
X3554D2*
X3606D1*
X4053D2*
X4107D1*
X4553D2*
X4854D1*
X196Y232D2*
X606D1*
X1053D2*
X1107D1*
X1553D2*
X1607D1*
X2054D2*
X2106D1*
X2553D2*
X2607D1*
X3053D2*
X3107D1*
X3554D2*
X3606D1*
X4053D2*
X4107D1*
X4553D2*
X4854D1*
X4547Y634D2*
Y190D1*
X4860D1*
Y641D1*
X4835Y629D1*
X4807Y620D1*
X4777Y614D1*
X4747Y613D1*
X4717Y615D1*
X4688Y621D1*
X4660Y631D1*
X4633Y645D1*
X4608Y662D1*
X4586Y682D1*
X4567Y705D1*
X4551Y730D1*
X4538Y758D1*
X4529Y786D1*
X4524Y816D1*
X4523Y846D1*
X4525Y875D1*
X4532Y905D1*
X4542Y933D1*
X4556Y959D1*
X4574Y984D1*
X4594Y1006D1*
X4618Y1025D1*
Y1560D1*
Y4085D1*
X4586Y4112D1*
X4567Y4135D1*
X4551Y4160D1*
X4538Y4188D1*
X4529Y4216D1*
X4524Y4246D1*
X4523Y4276D1*
X4525Y4305D1*
X4532Y4335D1*
X4542Y4363D1*
X4556Y4389D1*
X4574Y4414D1*
X4594Y4436D1*
X4617Y4455D1*
X4643Y4471D1*
X4670Y4483D1*
X4699Y4492D1*
X4728Y4496D1*
X4758Y4497D1*
X4788Y4494D1*
X4817Y4487D1*
X4859Y4469D1*
X4860Y4720D1*
Y4810D1*
X190D1*
Y190D1*
X613D1*
Y640D1*
X617Y669D1*
X631Y696D1*
X653Y716D1*
X680Y729D1*
X705Y732D1*
X713D1*
X736Y764D1*
X1506Y1534D1*
X1530Y1552D1*
X1557Y1565D1*
X1587Y1572D1*
X1600D1*
X2075D1*
X2073Y1606D1*
X2075Y1635D1*
X2082Y1665D1*
X2092Y1693D1*
X2106Y1719D1*
X2124Y1744D1*
X2144Y1766D1*
X2167Y1785D1*
X2193Y1801D1*
X2220Y1813D1*
X2249Y1822D1*
X2278Y1826D1*
X2308Y1827D1*
X2338Y1824D1*
X2367Y1817D1*
X2395Y1806D1*
X2422Y1792D1*
X2446Y1774D1*
X2468Y1754D1*
X2480Y1738D1*
X2496Y1769D1*
X2514Y1794D1*
X2534Y1816D1*
X2557Y1835D1*
X2583Y1851D1*
X2610Y1863D1*
X2639Y1872D1*
X2668Y1876D1*
X2698Y1877D1*
X2728Y1874D1*
X2757Y1867D1*
X2785Y1856D1*
X2812Y1842D1*
X2836Y1824D1*
X2858Y1804D1*
X2876Y1780D1*
X2892Y1755D1*
X2904Y1727D1*
X2912Y1698D1*
X2917Y1650D1*
X2915Y1620D1*
X2910Y1591D1*
X2900Y1562D1*
X2886Y1535D1*
X2870Y1511D1*
X2850Y1488D1*
X2827Y1469D1*
X2802Y1452D1*
X2775Y1439D1*
X2747Y1430D1*
X2717Y1424D1*
X2687Y1423D1*
X2653Y1426D1*
X2334Y1106D1*
X2310Y1088D1*
X2283Y1075D1*
X2253Y1068D1*
X2240D1*
X2014D1*
X1799Y852D1*
X1674Y727D1*
X1710Y732D1*
X1955D1*
X1984Y728D1*
X2011Y714D1*
X2031Y692D1*
X2044Y665D1*
X2047Y640D1*
Y189D1*
X2113Y190D1*
Y640D1*
X2117Y669D1*
X2131Y696D1*
X2153Y716D1*
X2180Y729D1*
X2205Y732D1*
X2285D1*
X2978Y1425D1*
Y1700D1*
Y3190D1*
X2981Y3220D1*
X2991Y3248D1*
X3008Y3274D1*
X3016Y3284D1*
X3606Y3873D1*
X3603Y3916D1*
X3605Y3945D1*
X3612Y3975D1*
X3622Y4003D1*
X3636Y4029D1*
X3654Y4054D1*
X3674Y4076D1*
X3697Y4095D1*
X3723Y4111D1*
X3750Y4123D1*
X3779Y4132D1*
X3800Y4135D1*
X3560Y4375D1*
X1548D1*
X1517Y4346D1*
X1492Y4330D1*
X1465Y4317D1*
X1437Y4307D1*
X1407Y4302D1*
X1377Y4300D1*
X1347Y4302D1*
X1318Y4309D1*
X1290Y4319D1*
X1263Y4332D1*
X1238Y4350D1*
X1212Y4375D1*
X1040D1*
X882Y4216D1*
Y3830D1*
Y3200D1*
X879Y3170D1*
X871Y3142D1*
X857Y3115D1*
X838Y3092D1*
X783Y3037D1*
X782Y2428D1*
X798Y2414D1*
X816Y2390D1*
X832Y2365D1*
X844Y2337D1*
X852Y2308D1*
X857Y2260D1*
X855Y2230D1*
X850Y2201D1*
X840Y2172D1*
X826Y2145D1*
X810Y2121D1*
X790Y2098D1*
X767Y2079D1*
X742Y2062D1*
X715Y2049D1*
X687Y2040D1*
X657Y2034D1*
X627Y2033D1*
X597Y2035D1*
X568Y2041D1*
X540Y2051D1*
X513Y2065D1*
X488Y2082D1*
X466Y2102D1*
X447Y2125D1*
X431Y2150D1*
X418Y2178D1*
X409Y2206D1*
X404Y2236D1*
X403Y2266D1*
X405Y2295D1*
X412Y2325D1*
X422Y2353D1*
X436Y2379D1*
X454Y2404D1*
X478Y2429D1*
Y3100D1*
X481Y3130D1*
X489Y3158D1*
X503Y3185D1*
X522Y3208D1*
X577Y3263D1*
X578Y4280D1*
X581Y4310D1*
X589Y4338D1*
X603Y4365D1*
X622Y4388D1*
X870Y4635D1*
X893Y4654D1*
X919Y4668D1*
X948Y4677D1*
X977Y4680D1*
X1211D1*
X1247Y4712D1*
X1273Y4728D1*
X1300Y4740D1*
X1329Y4749D1*
X1358Y4754D1*
X1388Y4755D1*
X1418Y4752D1*
X1447Y4745D1*
X1475Y4734D1*
X1502Y4720D1*
X1526Y4702D1*
X1548Y4680D1*
X1890D1*
X3623D1*
X3652Y4677D1*
X3681Y4668D1*
X3707Y4654D1*
X3730Y4635D1*
X4358Y4008D1*
X4377Y3985D1*
X4391Y3958D1*
X4400Y3930D1*
X4402Y3900D1*
Y2850D1*
X4399Y2820D1*
X4391Y2792D1*
X4377Y2765D1*
X4358Y2742D1*
X3867Y2251D1*
X3865Y2210D1*
X3860Y2181D1*
X3850Y2152D1*
X3836Y2125D1*
X3818Y2099D1*
X3918Y1998D1*
X3937Y1975D1*
X3951Y1948D1*
X3960Y1920D1*
X3962Y1890D1*
Y732D1*
X3984Y728D1*
X4011Y714D1*
X4031Y692D1*
X4044Y665D1*
X4047Y640D1*
Y189D1*
X4113Y190D1*
Y230D1*
Y652D1*
X4120Y675D1*
X4131Y696D1*
X4148Y713D1*
X4169Y725D1*
X4192Y731D1*
X4235Y732D1*
X4467D1*
X4490Y725D1*
X4511Y714D1*
X4528Y697D1*
X4540Y676D1*
X4546Y653D1*
X4547Y634D1*
X3613Y190D2*
Y640D1*
X3617Y669D1*
X3631Y696D1*
X3658Y719D1*
Y820D1*
X3531Y693D1*
X3544Y665D1*
X3547Y640D1*
Y189D1*
X3613Y190D1*
X3113D2*
Y640D1*
X3117Y669D1*
X3131Y696D1*
X3153Y716D1*
X3185Y730D1*
X3208Y732D1*
X3228Y764D1*
X3236Y774D1*
X3478Y1016D1*
Y1140D1*
Y1165D1*
X3474Y1153D1*
X3460Y1126D1*
X3422Y1085D1*
X3031Y693D1*
X3044Y665D1*
X3047Y640D1*
Y189D1*
X3112Y190D1*
X2613D2*
Y640D1*
X2617Y669D1*
X2631Y696D1*
X2653Y716D1*
X2685Y730D1*
X2708Y732D1*
X2728Y764D1*
X2736Y774D1*
X3218Y1256D1*
Y1293D1*
X3182Y1255D1*
X2547Y619D1*
Y430D1*
Y189D1*
X2613Y190D1*
X1613D2*
Y640D1*
X1618Y670D1*
X1548Y601D1*
X1547Y189D1*
X1612Y190D1*
X1113D2*
Y640D1*
X1117Y669D1*
X1131Y696D1*
X1153Y716D1*
X1180Y729D1*
X1205Y732D1*
X1305D1*
X1867Y1294D1*
X1870Y1308D1*
X1655D1*
X1034Y687D1*
X1044Y665D1*
X1047Y640D1*
Y189D1*
X1113Y190D1*
X4098Y3837D2*
X4055Y3879D1*
X4050Y3851D1*
X4033Y3808D1*
X4065Y3796D1*
X4097Y3778D1*
X4098Y3837D1*
Y2913D2*
Y3402D1*
X4055Y3379D1*
X4027Y3370D1*
X3997Y3364D1*
X3967Y3363D1*
X3933Y3366D1*
X3482Y2915D1*
Y2403D1*
X3507Y2425D1*
X3533Y2441D1*
X3560Y2453D1*
X3589Y2462D1*
X3618Y2466D1*
X3651Y2467D1*
X4098Y2913D1*
X1548Y4375D2*
X1517Y4346D1*
X1492Y4330D1*
X1465Y4317D1*
X1437Y4307D1*
X1407Y4302D1*
X1377Y4300D1*
X1347Y4302D1*
X1318Y4309D1*
X1290Y4319D1*
X1263Y4332D1*
X1238Y4350D1*
X1212Y4375D1*
Y4680D2*
X1247Y4712D1*
X1273Y4728D1*
X1300Y4740D1*
X1329Y4749D1*
X1358Y4754D1*
X1388Y4755D1*
X1418Y4752D1*
X1447Y4745D1*
X1475Y4734D1*
X1502Y4720D1*
X1526Y4702D1*
X1548Y4680D1*
X3334Y1866D2*
X3242Y1960D1*
X3243Y1841D1*
X3270Y1853D1*
X3299Y1862D1*
X3333Y1867D1*
X3278Y3085D2*
X3746Y3554D1*
X3743Y3596D1*
X3749Y3643D1*
X3287Y3180D1*
X3243Y3136D1*
X3242Y3047D1*
X3256Y3064D1*
X3278Y3085D1*
X4330Y732D2*
D15*
Y390D1*
X4113D2*
X4547D1*
G36*
X4455Y640D2*
Y140D1*
X4205D1*
Y640D1*
X4455D1*
G37*
G36*
X3955D2*
Y140D1*
X3705D1*
Y640D1*
X3955D1*
G37*
G36*
X3455D2*
Y140D1*
X3205D1*
Y640D1*
X3455D1*
G37*
G36*
X2955D2*
Y140D1*
X2705D1*
Y640D1*
X2955D1*
G37*
G36*
X2455D2*
Y140D1*
X2205D1*
Y640D1*
X2455D1*
G37*
G36*
X1955D2*
Y140D1*
X1705D1*
Y640D1*
X1955D1*
G37*
G36*
X1455D2*
Y140D1*
X1205D1*
Y640D1*
X1455D1*
G37*
G36*
X955D2*
Y140D1*
X705D1*
Y640D1*
X955D1*
G37*
M02*
