G04 DipTrace Beta 2.3.5.2*
%INOpenSky_NoLDO.GTO*%
%MOIN*%
%ADD17O,0.014X0.015*%
%ADD28C,0.0031*%
%ADD29C,0.0044*%
%ADD30C,0.0046*%
%ADD31C,0.0087*%
%ADD32C,0.0109*%
%FSLAX44Y44*%
G04*
G70*
G90*
G75*
G01*
%LNTop TopSilk*%
%LPD*%
D17*
X3070Y1755D3*
X1026Y4708D2*
D29*
X825D1*
Y4622D1*
X834Y4593D1*
X844Y4584D1*
X863Y4574D1*
X892D1*
X911Y4584D1*
X920Y4593D1*
X930Y4622D1*
X940Y4593D1*
X949Y4584D1*
X968Y4574D1*
X987D1*
X1006Y4584D1*
X1016Y4593D1*
X1026Y4622D1*
Y4708D1*
X930D2*
Y4622D1*
X1026Y4487D2*
X825D1*
X1026Y4265D2*
X825D1*
X1026Y4399D1*
X825D1*
X1026Y4178D2*
X825D1*
Y4111D1*
X834Y4082D1*
X854Y4063D1*
X873Y4053D1*
X901Y4044D1*
X949D1*
X978Y4053D1*
X997Y4063D1*
X1016Y4082D1*
X1026Y4111D1*
Y4178D1*
X4151Y1280D2*
D30*
X4255D1*
X4289Y1295D1*
X4300Y1309D1*
X4312Y1338D1*
Y1381D1*
X4300Y1409D1*
X4289Y1424D1*
X4255Y1438D1*
X4151D1*
Y1137D1*
X4386Y1280D2*
X4489D1*
X4524Y1295D1*
X4535Y1309D1*
X4547Y1338D1*
Y1381D1*
X4535Y1409D1*
X4524Y1424D1*
X4489Y1438D1*
X4386D1*
Y1137D1*
X4804D2*
Y1438D1*
X4713Y1137D1*
X4621Y1438D1*
Y1137D1*
X3519Y1423D2*
D31*
Y1078D1*
X3347Y1250D2*
X3691D1*
X2422Y1247D2*
D32*
X2698D1*
X1695Y1312D2*
D28*
Y1111D1*
X1628Y1312D2*
X1762D1*
X1824D2*
X1958Y1111D1*
Y1312D2*
X1824Y1111D1*
X1188Y1226D2*
X1274D1*
X1303Y1236D1*
X1313Y1246D1*
X1322Y1265D1*
Y1284D1*
X1313Y1303D1*
X1303Y1313D1*
X1274Y1322D1*
X1188D1*
Y1121D1*
X1255Y1226D2*
X1322Y1121D1*
X1384Y1322D2*
X1518Y1121D1*
Y1322D2*
X1384Y1121D1*
X1088Y1652D2*
Y1451D1*
X1155D1*
X1184Y1461D1*
X1203Y1480D1*
X1213Y1499D1*
X1222Y1528D1*
Y1576D1*
X1213Y1604D1*
X1203Y1623D1*
X1184Y1643D1*
X1155Y1652D1*
X1088D1*
X1351D2*
Y1451D1*
X1284Y1652D2*
X1418D1*
X1480Y1556D2*
X1566D1*
X1594Y1566D1*
X1604Y1576D1*
X1614Y1595D1*
Y1614D1*
X1604Y1633D1*
X1594Y1643D1*
X1566Y1652D1*
X1480D1*
Y1451D1*
X1547Y1556D2*
X1614Y1451D1*
M02*
